<?xml version="1.0" encoding="UTF-8" standalone="no"?>
<svg xmlns="http://www.w3.org/2000/svg" width="1920" height="1080" viewBox="0 0 1920 1080">
  <defs>
    <linearGradient id="bg-gradient" x1="0%" y1="0%" x2="100%" y2="100%">
      <stop offset="0%" stop-color="#1a1464"/>
      <stop offset="100%" stop-color="#2a1b7c"/>
    </linearGradient>
    <filter id="noise" x="0%" y="0%" width="100%" height="100%">
      <feTurbulence type="fractalNoise" baseFrequency="0.5" numOctaves="2" stitchTiles="stitch"/>
      <feColorMatrix type="matrix" values="1 0 0 0 0 0 1 0 0 0 0 0 1 0 0 0 0 0 0.05 0"/>
      <feComposite operator="in" in2="SourceGraphic" result="monoNoise"/>
      <feBlend in="SourceGraphic" in2="monoNoise" mode="overlay" result="blend"/>
    </filter>
  </defs>
  
  <!-- Background -->
  <rect width="1920" height="1080" fill="url(#bg-gradient)" filter="url(#noise)"/>
  
  <!-- Recording studio elements -->
  <g opacity="0.8">
    <!-- Sound waves -->
    <g transform="translate(960, 540)">
      <circle cx="0" cy="0" r="50" fill="none" stroke="rgba(255,255,255,0.2)" stroke-width="2"/>
      <circle cx="0" cy="0" r="100" fill="none" stroke="rgba(255,255,255,0.2)" stroke-width="2"/>
      <circle cx="0" cy="0" r="150" fill="none" stroke="rgba(255,255,255,0.2)" stroke-width="2"/>
      <circle cx="0" cy="0" r="200" fill="none" stroke="rgba(255,255,255,0.2)" stroke-width="2"/>
      <circle cx="0" cy="0" r="250" fill="none" stroke="rgba(255,255,255,0.2)" stroke-width="2"/>
      <circle cx="0" cy="0" r="300" fill="none" stroke="rgba(255,255,255,0.2)" stroke-width="2"/>
      <circle cx="0" cy="0" r="350" fill="none" stroke="rgba(255,255,255,0.2)" stroke-width="2"/>
      <circle cx="0" cy="0" r="400" fill="none" stroke="rgba(255,255,255,0.2)" stroke-width="2"/>
    </g>
    
    <!-- Equalizer bars -->
    <g transform="translate(300, 540)">
      <rect x="0" y="-100" width="20" height="200" fill="rgba(255,255,255,0.3)"/>
      <rect x="30" y="-150" width="20" height="300" fill="rgba(255,255,255,0.3)"/>
      <rect x="60" y="-80" width="20" height="160" fill="rgba(255,255,255,0.3)"/>
      <rect x="90" y="-200" width="20" height="400" fill="rgba(255,255,255,0.3)"/>
      <rect x="120" y="-120" width="20" height="240" fill="rgba(255,255,255,0.3)"/>
      <rect x="150" y="-170" width="20" height="340" fill="rgba(255,255,255,0.3)"/>
      <rect x="180" y="-90" width="20" height="180" fill="rgba(255,255,255,0.3)"/>
      <rect x="210" y="-130" width="20" height="260" fill="rgba(255,255,255,0.3)"/>
    </g>
    
    <g transform="translate(1400, 540)">
      <rect x="0" y="-120" width="20" height="240" fill="rgba(255,255,255,0.3)"/>
      <rect x="30" y="-80" width="20" height="160" fill="rgba(255,255,255,0.3)"/>
      <rect x="60" y="-180" width="20" height="360" fill="rgba(255,255,255,0.3)"/>
      <rect x="90" y="-100" width="20" height="200" fill="rgba(255,255,255,0.3)"/>
      <rect x="120" y="-150" width="20" height="300" fill="rgba(255,255,255,0.3)"/>
      <rect x="150" y="-90" width="20" height="180" fill="rgba(255,255,255,0.3)"/>
      <rect x="180" y="-200" width="20" height="400" fill="rgba(255,255,255,0.3)"/>
      <rect x="210" y="-130" width="20" height="260" fill="rgba(255,255,255,0.3)"/>
    </g>
  </g>
  
  <!-- Microphone -->
  <g transform="translate(960, 540)">
    <circle cx="0" cy="0" r="40" fill="rgba(200,200,200,0.8)"/>
    <circle cx="0" cy="0" r="30" fill="rgba(150,150,150,0.8)"/>
    <rect x="-5" y="40" width="10" height="100" fill="rgba(100,100,100,0.8)"/>
  </g>
  
  <!-- Title -->
  <g transform="translate(960, 300)" text-anchor="middle">
    <text font-family="Arial, sans-serif" font-size="80" font-weight="bold" fill="white" opacity="0.8">RECORDING STUDIO</text>
    <text font-family="Arial, sans-serif" font-size="30" fill="white" opacity="0.6" y="60">Where Music Comes to Life</text>
  </g>
</svg>
