<?xml version="1.0" encoding="UTF-8" standalone="no"?>
<svg xmlns="http://www.w3.org/2000/svg" width="1920" height="1080" viewBox="0 0 1920 1080">
  <defs>
    <linearGradient id="bg-gradient" x1="0%" y1="0%" x2="100%" y2="100%">
      <stop offset="0%" stop-color="#1a1464"/>
      <stop offset="100%" stop-color="#3a2b8c"/>
    </linearGradient>
    <filter id="noise" x="0%" y="0%" width="100%" height="100%">
      <feTurbulence type="fractalNoise" baseFrequency="0.5" numOctaves="2" stitchTiles="stitch"/>
      <feColorMatrix type="matrix" values="1 0 0 0 0 0 1 0 0 0 0 0 1 0 0 0 0 0 0.05 0"/>
      <feComposite operator="in" in2="SourceGraphic" result="monoNoise"/>
      <feBlend in="SourceGraphic" in2="monoNoise" mode="overlay" result="blend"/>
    </filter>
  </defs>
  
  <!-- Background -->
  <rect width="1920" height="1080" fill="url(#bg-gradient)" filter="url(#noise)"/>
  
  <!-- Musical elements -->
  <g opacity="0.2" fill="white">
    <!-- Music notes -->
    <path d="M400,300 Q450,250 500,300" stroke="white" stroke-width="3" fill="none"/>
    <circle cx="400" cy="300" r="15" fill="white"/>
    
    <path d="M1200,500 Q1250,450 1300,500" stroke="white" stroke-width="3" fill="none"/>
    <circle cx="1200" cy="500" r="15" fill="white"/>
    
    <path d="M800,700 Q850,650 900,700" stroke="white" stroke-width="3" fill="none"/>
    <circle cx="800" cy="700" r="15" fill="white"/>
    
    <!-- Abstract musical elements -->
    <rect x="300" y="400" width="100" height="5" rx="2.5"/>
    <rect x="300" y="420" width="80" height="5" rx="2.5"/>
    <rect x="300" y="440" width="120" height="5" rx="2.5"/>
    <rect x="300" y="460" width="90" height="5" rx="2.5"/>
    
    <rect x="1400" y="300" width="100" height="5" rx="2.5"/>
    <rect x="1400" y="320" width="80" height="5" rx="2.5"/>
    <rect x="1400" y="340" width="120" height="5" rx="2.5"/>
    <rect x="1400" y="360" width="90" height="5" rx="2.5"/>
    
    <rect x="700" y="800" width="100" height="5" rx="2.5"/>
    <rect x="700" y="820" width="80" height="5" rx="2.5"/>
    <rect x="700" y="840" width="120" height="5" rx="2.5"/>
    <rect x="700" y="860" width="90" height="5" rx="2.5"/>
  </g>
  
  <!-- MCSK Logo -->
  <g transform="translate(960, 540)" text-anchor="middle">
    <text font-family="Arial, sans-serif" font-size="120" font-weight="bold" fill="white" opacity="0.3">MCSK</text>
    <text font-family="Arial, sans-serif" font-size="30" fill="white" opacity="0.3" y="60">Music Copyright Society of Kenya</text>
  </g>
</svg>
